<?xml version="1.0" encoding="UTF-8"?>
<svg width="200" height="50" viewBox="0 0 200 50" fill="none" xmlns="http://www.w3.org/2000/svg">
  <path d="M32.5 10C24.2157 10 17.5 16.7157 17.5 25C17.5 33.2843 24.2157 40 32.5 40C40.7843 40 47.5 33.2843 47.5 25C47.5 16.7157 40.7843 10 32.5 10Z" stroke="#A37E2C" stroke-width="2"/>
  <path d="M32.5 15C26.9772 15 22.5 19.4772 22.5 25C22.5 30.5228 26.9772 35 32.5 35C38.0228 35 42.5 30.5228 42.5 25C42.5 19.4772 38.0228 15 32.5 15Z" fill="#A37E2C"/>
  <path d="M55 14.2V35H60.832V28.456H68.384V35H74.216V14.2H68.384V23.144H60.832V14.2H55Z" fill="#A37E2C"/>
  <path d="M83.5156 35V14.2H94.8356C97.4036 14.2 99.4356 14.92 100.932 16.36C102.452 17.8 103.212 19.648 103.212 21.904C103.212 24.16 102.452 26.008 100.932 27.448C99.4356 28.888 97.4036 29.608 94.8356 29.608H89.3476V35H83.5156ZM89.3476 24.296H93.9076C94.6916 24.296 95.3116 24.056 95.7676 23.576C96.2476 23.096 96.4876 22.544 96.4876 21.904C96.4876 21.264 96.2476 20.712 95.7676 20.248C95.3116 19.768 94.6916 19.528 93.9076 19.528H89.3476V24.296Z" fill="#A37E2C"/>
  <path d="M106.418 35V14.2H122.57V19.432H112.25V22.112H121.402V27.224H112.25V29.768H122.57V35H106.418Z" fill="#A37E2C"/>
  <path d="M132.438 35V19.432H125.246V14.2H145.83V19.432H138.638V35H132.438Z" fill="#A37E2C"/>
  <path d="M148.246 35V14.2H162.934C165.19 14.2 166.998 14.824 168.358 16.072C169.718 17.296 170.398 18.904 170.398 20.896C170.398 22.048 170.11 23.08 169.534 23.992C168.958 24.904 168.118 25.624 167.014 26.152C167.59 26.488 168.07 26.968 168.454 27.592C168.862 28.216 169.15 28.992 169.318 29.92L170.398 35H164.198L163.19 30.76C163.07 30.136 162.815 29.672 162.43 29.368C162.07 29.04 161.566 28.896 160.918 28.936H154.078V35H148.246ZM154.078 23.8H161.35C162.134 23.8 162.767 23.56 163.246 23.08C163.75 22.576 164.002 21.968 164.002 21.256C164.002 20.568 163.75 19.976 163.246 19.48C162.767 18.96 162.134 18.704 161.35 18.704H154.078V23.8Z" fill="#A37E2C"/>
  <path d="M173.594 35V14.2H187.17C189.378 14.2 191.202 14.888 192.642 16.264C194.082 17.616 194.802 19.352 194.802 21.472C194.802 23.592 194.082 25.336 192.642 26.704C191.202 28.072 189.378 28.76 187.17 28.76H179.426V35H173.594ZM179.426 23.528H186.242C186.962 23.528 187.57 23.28 188.066 22.784C188.562 22.288 188.81 21.664 188.81 20.912C188.81 20.16 188.562 19.544 188.066 19.064C187.57 18.584 186.962 18.344 186.242 18.344H179.426V23.528Z" fill="#A37E2C"/>
  <path d="M10 40V40.4C10 42.3882 11.6118 44 13.6 44H51.4C53.3882 44 55 42.3882 55 40.4V40H10Z" fill="#A37E2C"/>
  <text x="60" y="47" font-family="Arial" font-size="9" fill="#A37E2C">ORTODONTIA FUNCIONAL DOS MAXILARES</text>
</svg>
