<?xml version="1.0" encoding="UTF-8" standalone="no"?>
<svg xmlns="http://www.w3.org/2000/svg" width="800" height="300" viewBox="0 0 600 200">
  <style>
    .gold-color {
      fill: #BEA06C;
    }
  </style>
  
  <!-- Círculo com perfis -->
  <g class="gold-color">
    <circle cx="100" cy="100" r="70" fill="none" stroke="#BEA06C" stroke-width="2"/>
    
    <!-- Perfis de rostos dentro do círculo -->
    <path d="M70,85 C65,70 75,50 85,60 C95,50 100,75 95,85 C90,95 80,95 70,85 Z"/>
    <path d="M130,85 C135,70 125,50 115,60 C105,50 100,75 105,85 C110,95 120,95 130,85 Z"/>
    
    <!-- Arcos conectando os perfis -->
    <path d="M90,55 C100,45 110,45 120,55" fill="none" stroke="#BEA06C" stroke-width="1"/>
    <path d="M75,80 C85,70 95,70 105,80" fill="none" stroke="#BEA06C" stroke-width="1"/>
  </g>
  
  <!-- Texto "Orto" -->
  <g class="gold-color">
    <path d="M200,55 C220,50 240,55 250,70 C260,85 255,110 240,120 C225,130 200,125 190,110 C180,95 185,70 200,55 Z M215,70 C205,75 200,90 205,100 C210,110 225,115 235,105 C245,95 240,75 225,70 C220,68 215,68 215,70 Z"/>
    
    <!-- 'r' -->
    <path d="M270,75 L270,120 L285,120 L285,90 C285,85 288,80 293,78 C298,76 305,80 305,85 L305,120 L320,120 L320,80 C320,70 310,65 300,70 C295,72 290,75 285,80 L285,75 L270,75 Z"/>
    
    <!-- 't' -->
    <path d="M330,55 L330,110 C330,115 335,120 340,120 L360,120 L360,105 L345,105 L345,55 L330,55 Z"/>
    
    <!-- 'o' -->
    <path d="M370,75 C355,75 345,85 345,97.5 C345,110 355,120 370,120 C385,120 395,110 395,97.5 C395,85 385,75 370,75 Z M370,90 C377,90 380,93 380,97.5 C380,102 377,105 370,105 C363,105 360,102 360,97.5 C360,93 363,90 370,90 Z"/>

    <!-- Estrela decorativa -->
    <path d="M265,95 L270,85 L275,95 L285,90 L280,100 L290,105 L280,110 L285,120 L275,115 L270,125 L265,115 L255,120 L260,110 L250,105 L260,100 L255,90 L265,95 Z"/>
  </g>
</svg>